# xmcd CD database file
#
# Track frame offsets:
#	150
#	10816
#	25275
#	38036
#	51213
#	63638
#	77444
#	89619
#	102759
#	116380
#	128126
#
# Disc length: 1897 seconds
#
# Revision: 1
# Processed by: cddbd v1.4PL0 Copyright (c) Steve Scherf et al.
# Submitted via: CDex 1.50Beta7
#
DISCID=8407670b
DTITLE=Various Artist - Blues Masters Volume 2
DYEAR=1900
DGENRE=Blues
TTITLE0=Thirty Days
TTITLE1=Sugar Mama
TTITLE2=Evil
TTITLE3=Got My Mojo Working
TTITLE4=I'm a Man
TTITLE5=Blues With a Feeling
TTITLE6=Key To The Highway
TTITLE7=It Ain't No Secret
TTITLE8=Wee Wee Hours
TTITLE9=Ten Years Ago
TTITLE10=So Many Roards
EXTD=
EXTT0=
EXTT1=
EXTT2=
EXTT3=
EXTT4=
EXTT5=
EXTT6=
EXTT7=
EXTT8=
EXTT9=
EXTT10=
PLAYORDER=
